-
http:// www . torrentkit. com        
http:// www .torrentkit. com       the fast  and The Hottest Private Tracker on the net

Please Seed back to make the speed Faster!!!

and don't forget to visit      ...... www .torrentkit .com..........
-[center][img]http://img845.imageshack.us/img845/2476/000c.jpg[/img]

[color=blue][size=5][b]Season Of The Witch 2011 R5 DVDRip XVID AC3 HQ Hive-CM8[/b][/size][/color]



[b]Thx Hive

CM8 Doing It Right The First Time :D


Sources:
Video: Russian DVD-9
Vremya.vedm.2010.D.DVD.ELEKTRI4KA
thx
Audio: English Audio from the Korean DVD

Video: 720x400 @bitrate 2000-4000 when needed
Audio: English AC3 5.1 @448 from the R6
Sample: yes included

Encode: the movie is relative dark so i divided the movie in 4 parts each with different settings in brightness,contrast,sharpness to get maximized quality without going over.
you can see more in darkness and have more bitrate for the eg. battlescenes without having too much brightness.

This is a perfect rip, but the bluray is on the way, if you cant wait here you can have the dvdrip earlier.
i dont think the bdrip will be much better than this version[/b]

[url]http://www.imdb.com/title/tt0479997/[/url]


General
Complete name                    : Season.of.the.Witch.2011.R5.DVDRip.XVID.AC3.HQ.Hive-CM8.avi
Format                           : AVI
Format/Info                      : Audio Video Interleave
File size                        : 1.77 GiB
Duration                         : 1h 30mn
Overall bit rate                 : 2 787 Kbps
Writing application              : Nandub v1.0rc2
Writing library                  : Nandub build 1853/release

Video
ID                               : 0
Format                           : MPEG-4 Visual
Format profile                   : Advanced Simple@L5
Format settings, BVOP            : Yes
Format settings, QPel            : Yes
Format settings, GMC             : No warppoints
Format settings, Matrix          : Default (H.263)
Muxing mode                      : Packed bitstream
Codec ID                         : XVID
Codec ID/Hint                    : XviD
Duration                         : 1h 30mn
Bit rate                         : 2 330 Kbps
Width                            : 720 pixels
Height                           : 400 pixels
Display aspect ratio             : 16:9
Frame rate                       : 25.000 fps
Color space                      : YUV
Chroma subsampling               : 4:2:0
Bit depth                        : 8 bits
Scan type                        : Progressive
Bits/(Pixel*Frame)               : 0.324
Stream size                      : 1.48 GiB (84%)
Writing library                  : XviD 1.2.1 (UTC 2008-12-04)

Audio
ID                               : 1
Format                           : AC-3
Format/Info                      : Audio Coding 3
Mode extension                   : CM (complete main)
Codec ID                         : 2000
Duration                         : 1h 30mn
Bit rate mode                    : Constant
Bit rate                         : 448 Kbps
Channel(s)                       : 6 channels
Channel positions                : Front: L C R, Side: L R, LFE
Sampling rate                    : 48.0 KHz
Bit depth                        : 16 bits
Stream size                      : 291 MiB (16%)
Alignment                        : Split accross interleaves
Interleave, duration             : 40 ms (1.00 video frame)
Interleave, preload duration     : 500 ms



Nicolas Cage ... Behmen
Ron Perlman ... Felson
Stephen Campbell Moore ... Debelzaq
Stephen Graham ... Hagamar  
Ulrich Thomsen ... Eckhart  
Claire Foy ... The Girl
Robert Sheehan ... Kay
Christopher Lee ... Cardinal D'Ambroise  
Rebekah Kennedy ... Peasant Turk Girl   



14th-century knights transport a suspected witch to a monastery, where monks 
deduce her powers could be the source of the Black Plague.  



[img]http://img861.imageshack.us/img861/130/94970165.png[/img]
[img]http://img402.imageshack.us/img402/9346/sese.png[/img]
[img]http://img689.imageshack.us/img689/7903/sesese.png[/img]
[img]http://img806.imageshack.us/img806/3200/sesesese.png[/img]
[img]http://img845.imageshack.us/img845/8959/sesesesese.png[/img]
[img]http://img196.imageshack.us/img196/9997/sesesesessee.png[/img]





Greetz

iNK,LUSi,,MAGNET,CLASSiFiED,THC,LEGi0N,T0XiC,IMAGiNE,ViSiON,WBZ,FLAWL3SS,NOVA
Vik,Rapeseed,D2U,SAFC,goldadvance,MEMORY100,KaN1vE,Unevano,Pinnz,Wayne,Mr Hive
and all P2P groups 
Great Work Guys :D

CM8@hushmail.com[/center]